# Blender v2.82 (sub 6) OBJ File: ''
# www.blender.org
o Cylinder
v 0.000000 -1.000000 -1.000000
v 0.000000 1.000000 -1.000000
v 0.195090 -1.000000 -0.980785
v 0.195090 1.000000 -0.980785
v 0.382683 -1.000000 -0.923880
v 0.382683 1.000000 -0.923880
v 0.555570 -1.000000 -0.831470
v 0.555570 1.000000 -0.831470
v 0.707107 -1.000000 -0.707107
v 0.707107 1.000000 -0.707107
v 0.831470 -1.000000 -0.555570
v 0.831470 1.000000 -0.555570
v 0.923880 -1.000000 -0.382683
v 0.923880 1.000000 -0.382683
v 0.980785 -1.000000 -0.195090
v 0.980785 1.000000 -0.195090
v 1.000000 -1.000000 -0.000000
v 1.000000 1.000000 -0.000000
v 0.980785 -1.000000 0.195090
v 0.980785 1.000000 0.195090
v 0.923880 -1.000000 0.382683
v 0.923880 1.000000 0.382683
v 0.831470 -1.000000 0.555570
v 0.831470 1.000000 0.555570
v 0.707107 -1.000000 0.707107
v 0.707107 1.000000 0.707107
v 0.555570 -1.000000 0.831470
v 0.555570 1.000000 0.831470
v 0.382683 -1.000000 0.923880
v 0.382683 1.000000 0.923880
v 0.195090 -1.000000 0.980785
v 0.195090 1.000000 0.980785
v -0.000000 -1.000000 1.000000
v -0.000000 1.000000 1.000000
v -0.195091 -1.000000 0.980785
v -0.195091 1.000000 0.980785
v -0.382684 -1.000000 0.923879
v -0.382684 1.000000 0.923879
v -0.555571 -1.000000 0.831469
v -0.555571 1.000000 0.831469
v -0.707107 -1.000000 0.707106
v -0.707107 1.000000 0.707106
v -0.831470 -1.000000 0.555570
v -0.831470 1.000000 0.555570
v -0.923880 -1.000000 0.382683
v -0.923880 1.000000 0.382683
v -0.980785 -1.000000 0.195089
v -0.980785 1.000000 0.195089
v -1.000000 -1.000000 -0.000001
v -1.000000 1.000000 -0.000001
v -0.980785 -1.000000 -0.195091
v -0.980785 1.000000 -0.195091
v -0.923879 -1.000000 -0.382684
v -0.923879 1.000000 -0.382684
v -0.831469 -1.000000 -0.555571
v -0.831469 1.000000 -0.555571
v -0.707106 -1.000000 -0.707108
v -0.707106 1.000000 -0.707108
v -0.555569 -1.000000 -0.831470
v -0.555569 1.000000 -0.831470
v -0.382682 -1.000000 -0.923880
v -0.382682 1.000000 -0.923880
v -0.195089 -1.000000 -0.980786
v -0.195089 1.000000 -0.980786
v 0.097545 -1.000000 -0.990393
v 0.097545 1.000000 -0.990393
v 0.000000 0.000000 -1.000000
v 0.195090 0.000000 -0.980785
v 0.288887 -1.000000 -0.952332
v 0.288887 1.000000 -0.952332
v 0.382683 0.000000 -0.923880
v 0.469127 -1.000000 -0.877675
v 0.469127 1.000000 -0.877675
v 0.555570 0.000000 -0.831470
v 0.631338 -1.000000 -0.769288
v 0.631338 1.000000 -0.769288
v 0.707107 0.000000 -0.707107
v 0.769288 -1.000000 -0.631338
v 0.769288 1.000000 -0.631338
v 0.831470 0.000000 -0.555570
v 0.877675 -1.000000 -0.469127
v 0.877675 1.000000 -0.469127
v 0.923880 0.000000 -0.382683
v 0.952332 -1.000000 -0.288887
v 0.952332 1.000000 -0.288887
v 0.980785 0.000000 -0.195090
v 0.990393 -1.000000 -0.097545
v 0.990393 1.000000 -0.097545
v 1.000000 0.000000 -0.000000
v 0.990393 -1.000000 0.097545
v 0.990393 1.000000 0.097545
v 0.980785 0.000000 0.195090
v 0.952332 -1.000000 0.288887
v 0.952332 1.000000 0.288887
v 0.923880 0.000000 0.382683
v 0.877675 -1.000000 0.469127
v 0.877675 1.000000 0.469127
v 0.831470 0.000000 0.555570
v 0.769288 -1.000000 0.631338
v 0.769288 1.000000 0.631338
v 0.707107 0.000000 0.707107
v 0.631338 -1.000000 0.769288
v 0.631338 1.000000 0.769288
v 0.555570 0.000000 0.831470
v 0.469127 -1.000000 0.877675
v 0.469127 1.000000 0.877675
v 0.382683 0.000000 0.923880
v 0.288887 -1.000000 0.952332
v 0.288887 1.000000 0.952332
v 0.195090 0.000000 0.980785
v 0.097545 -1.000000 0.990393
v 0.097545 1.000000 0.990393
v -0.000000 0.000000 1.000000
v -0.097546 -1.000000 0.990393
v -0.097546 1.000000 0.990393
v -0.195091 0.000000 0.980785
v -0.288887 -1.000000 0.952332
v -0.288887 1.000000 0.952332
v -0.382684 0.000000 0.923879
v -0.469127 -1.000000 0.877674
v -0.469127 1.000000 0.877674
v -0.555571 0.000000 0.831469
v -0.631339 -1.000000 0.769288
v -0.631339 1.000000 0.769288
v -0.707107 0.000000 0.707106
v -0.769289 -1.000000 0.631338
v -0.769289 1.000000 0.631338
v -0.831470 0.000000 0.555570
v -0.877675 -1.000000 0.469126
v -0.877675 1.000000 0.469126
v -0.923880 0.000000 0.382683
v -0.952333 -1.000000 0.288886
v -0.952333 1.000000 0.288886
v -0.980785 0.000000 0.195089
v -0.990393 -1.000000 0.097544
v -0.990393 1.000000 0.097544
v -1.000000 0.000000 -0.000001
v -0.990393 -1.000000 -0.097546
v -0.990393 1.000000 -0.097546
v -0.980785 0.000000 -0.195091
v -0.952332 -1.000000 -0.288888
v -0.952332 1.000000 -0.288888
v -0.923879 0.000000 -0.382684
v -0.877674 -1.000000 -0.469128
v -0.877674 1.000000 -0.469128
v -0.831469 0.000000 -0.555571
v -0.769287 -1.000000 -0.631339
v -0.769287 1.000000 -0.631339
v -0.707106 0.000000 -0.707108
v -0.631338 -1.000000 -0.769289
v -0.631338 1.000000 -0.769289
v -0.555569 0.000000 -0.831470
v -0.469126 -1.000000 -0.877675
v -0.469126 1.000000 -0.877675
v -0.382682 0.000000 -0.923880
v -0.288885 -1.000000 -0.952333
v -0.288885 1.000000 -0.952333
v -0.195089 0.000000 -0.980786
v -0.097544 -1.000000 -0.990393
v -0.097544 1.000000 -0.990393
v -0.097544 0.000000 -0.990393
v -0.288885 0.000000 -0.952333
v -0.469126 0.000000 -0.877675
v -0.631338 0.000000 -0.769289
v -0.769287 0.000000 -0.631339
v -0.877674 0.000000 -0.469128
v -0.952332 0.000000 -0.288888
v -0.990393 0.000000 -0.097546
v -0.990393 0.000000 0.097544
v -0.952333 0.000000 0.288886
v -0.877675 0.000000 0.469126
v -0.769289 0.000000 0.631338
v -0.631339 0.000000 0.769288
v -0.469127 0.000000 0.877674
v -0.288887 0.000000 0.952332
v -0.097546 0.000000 0.990393
v 0.097545 0.000000 0.990393
v 0.288887 0.000000 0.952332
v 0.469127 0.000000 0.877675
v 0.631338 0.000000 0.769288
v 0.769288 0.000000 0.631338
v 0.877675 0.000000 0.469127
v 0.952332 0.000000 0.288887
v 0.990393 0.000000 0.097545
v 0.990393 0.000000 -0.097545
v 0.952332 0.000000 -0.288887
v 0.877675 0.000000 -0.469127
v 0.769288 0.000000 -0.631338
v 0.631338 0.000000 -0.769288
v 0.469127 0.000000 -0.877675
v 0.288887 0.000000 -0.952332
v 0.097545 0.000000 -0.990393
vn 0.0693 0.7071 -0.7037
vn 0.1951 0.0000 -0.9808
vn 0.0980 0.0000 -0.9952
vn 0.2052 0.7071 -0.6767
vn 0.3827 0.0000 -0.9239
vn 0.2903 0.0000 -0.9569
vn 0.3333 0.7071 -0.6236
vn 0.5556 0.0000 -0.8314
vn 0.4714 0.0000 -0.8819
vn 0.4486 0.7071 -0.5466
vn 0.7071 0.0000 -0.7071
vn 0.6344 0.0000 -0.7730
vn 0.5466 0.7071 -0.4486
vn 0.8314 0.0000 -0.5556
vn 0.7730 0.0000 -0.6344
vn 0.6236 0.7071 -0.3333
vn 0.9239 0.0000 -0.3827
vn 0.8819 0.0000 -0.4714
vn 0.6767 0.7071 -0.2052
vn 0.9808 0.0000 -0.1951
vn 0.9569 0.0000 -0.2903
vn 0.7037 0.7071 -0.0693
vn 1.0000 0.0000 0.0000
vn 0.9952 0.0000 -0.0980
vn 0.7037 0.7071 0.0693
vn 0.9808 0.0000 0.1951
vn 0.9952 0.0000 0.0980
vn 0.6767 0.7071 0.2052
vn 0.9239 0.0000 0.3827
vn 0.9569 0.0000 0.2903
vn 0.6236 0.7071 0.3333
vn 0.8314 0.0000 0.5556
vn 0.8819 0.0000 0.4714
vn 0.5466 0.7071 0.4486
vn 0.7071 0.0000 0.7071
vn 0.7730 0.0000 0.6344
vn 0.4486 0.7071 0.5466
vn 0.5556 0.0000 0.8314
vn 0.6344 0.0000 0.7730
vn 0.3333 0.7071 0.6236
vn 0.3827 0.0000 0.9239
vn 0.4714 0.0000 0.8819
vn 0.2052 0.7071 0.6767
vn 0.1951 0.0000 0.9808
vn 0.2903 0.0000 0.9569
vn 0.0693 0.7071 0.7037
vn 0.0000 0.0000 1.0000
vn 0.0980 0.0000 0.9952
vn -0.0693 0.7071 0.7037
vn -0.1951 0.0000 0.9808
vn -0.0980 0.0000 0.9952
vn -0.2052 0.7071 0.6767
vn -0.3827 0.0000 0.9239
vn -0.2903 0.0000 0.9569
vn -0.3333 0.7071 0.6236
vn -0.5556 0.0000 0.8314
vn -0.4714 0.0000 0.8819
vn -0.4486 0.7071 0.5466
vn -0.7071 0.0000 0.7071
vn -0.6344 0.0000 0.7730
vn -0.5466 0.7071 0.4486
vn -0.8314 0.0000 0.5556
vn -0.7730 0.0000 0.6344
vn -0.6236 0.7071 0.3333
vn -0.9239 0.0000 0.3827
vn -0.8819 0.0000 0.4714
vn -0.6767 0.7071 0.2052
vn -0.9808 0.0000 0.1951
vn -0.9569 0.0000 0.2903
vn -0.7037 0.7071 0.0693
vn -1.0000 0.0000 0.0000
vn -0.9952 0.0000 0.0980
vn -0.7037 0.7071 -0.0693
vn -0.9808 0.0000 -0.1951
vn -0.9952 0.0000 -0.0980
vn -0.6767 0.7071 -0.2052
vn -0.9239 0.0000 -0.3827
vn -0.9569 0.0000 -0.2903
vn -0.6236 0.7071 -0.3333
vn -0.8314 0.0000 -0.5556
vn -0.8819 0.0000 -0.4714
vn -0.5466 0.7071 -0.4486
vn -0.7071 0.0000 -0.7071
vn -0.7730 0.0000 -0.6344
vn -0.4486 0.7071 -0.5466
vn -0.5556 0.0000 -0.8314
vn -0.6344 0.0000 -0.7730
vn -0.3333 0.7071 -0.6236
vn -0.3827 0.0000 -0.9239
vn -0.4714 0.0000 -0.8819
vn -0.2052 0.7071 -0.6767
vn -0.1951 0.0000 -0.9808
vn -0.2903 0.0000 -0.9569
vn -0.0693 0.7071 -0.7037
vn 0.0000 0.0000 -1.0000
vn -0.0980 0.0000 -0.9952
vn 0.7037 -0.7071 -0.0693
vn 0.0693 -0.7071 0.7037
vn -0.7037 -0.7071 0.0693
vn 0.0000 -0.6857 -0.7279
vn -0.0693 -0.7071 -0.7037
vn -0.1420 -0.6857 -0.7139
vn -0.1420 0.6857 -0.7139
vn -0.2052 -0.7071 -0.6767
vn -0.2785 -0.6857 -0.6725
vn -0.2785 0.6857 -0.6725
vn -0.3333 -0.7071 -0.6236
vn -0.4044 -0.6857 -0.6052
vn -0.4044 0.6857 -0.6052
vn -0.4486 -0.7071 -0.5466
vn -0.5147 -0.6857 -0.5147
vn -0.5147 0.6857 -0.5147
vn -0.5466 -0.7071 -0.4486
vn -0.6052 -0.6857 -0.4044
vn -0.6052 0.6857 -0.4044
vn -0.6236 -0.7071 -0.3333
vn -0.6725 -0.6857 -0.2785
vn -0.6725 0.6857 -0.2785
vn -0.6767 -0.7071 -0.2052
vn -0.7139 -0.6857 -0.1420
vn -0.7139 0.6857 -0.1420
vn -0.7037 -0.7071 -0.0693
vn -0.7279 -0.6857 0.0000
vn -0.7279 0.6857 0.0000
vn -0.7139 -0.6857 0.1420
vn -0.7139 0.6857 0.1420
vn -0.6767 -0.7071 0.2052
vn -0.6725 -0.6857 0.2785
vn -0.6725 0.6857 0.2785
vn -0.6236 -0.7071 0.3333
vn -0.6052 -0.6857 0.4044
vn -0.6052 0.6857 0.4044
vn -0.5466 -0.7071 0.4486
vn -0.5147 -0.6857 0.5147
vn -0.5147 0.6857 0.5147
vn -0.4486 -0.7071 0.5466
vn -0.4044 -0.6857 0.6052
vn -0.4044 0.6857 0.6052
vn -0.3333 -0.7071 0.6236
vn -0.2785 -0.6857 0.6725
vn -0.2785 0.6857 0.6725
vn -0.2052 -0.7071 0.6767
vn -0.1420 -0.6857 0.7139
vn -0.1420 0.6857 0.7139
vn -0.0693 -0.7071 0.7037
vn 0.0000 -0.6857 0.7279
vn 0.0000 0.6857 0.7279
vn 0.1420 -0.6857 0.7139
vn 0.1420 0.6857 0.7139
vn 0.2052 -0.7071 0.6767
vn 0.2785 -0.6857 0.6725
vn 0.2785 0.6857 0.6725
vn 0.3333 -0.7071 0.6236
vn 0.4044 -0.6857 0.6052
vn 0.4044 0.6857 0.6052
vn 0.4486 -0.7071 0.5466
vn 0.5147 -0.6857 0.5147
vn 0.5147 0.6857 0.5147
vn 0.5466 -0.7071 0.4486
vn 0.6052 -0.6857 0.4044
vn 0.6052 0.6857 0.4044
vn 0.6236 -0.7071 0.3333
vn 0.6725 -0.6857 0.2785
vn 0.6725 0.6857 0.2785
vn 0.6767 -0.7071 0.2052
vn 0.7139 -0.6857 0.1420
vn 0.7139 0.6857 0.1420
vn 0.7037 -0.7071 0.0693
vn 0.7279 -0.6857 0.0000
vn 0.7279 0.6857 0.0000
vn 0.7139 -0.6857 -0.1420
vn 0.7139 0.6857 -0.1420
vn 0.6767 -0.7071 -0.2052
vn 0.6725 -0.6857 -0.2785
vn 0.6725 0.6857 -0.2785
vn 0.6236 -0.7071 -0.3333
vn 0.6052 -0.6857 -0.4044
vn 0.6052 0.6857 -0.4044
vn 0.5466 -0.7071 -0.4486
vn 0.5147 -0.6857 -0.5147
vn 0.5147 0.6857 -0.5147
vn 0.4486 -0.7071 -0.5466
vn 0.4044 -0.6857 -0.6052
vn 0.4044 0.6857 -0.6052
vn 0.3333 -0.7071 -0.6236
vn 0.2785 -0.6857 -0.6725
vn 0.2785 0.6857 -0.6725
vn 0.2052 -0.7071 -0.6767
vn 0.1420 -0.6857 -0.7139
vn 0.1420 0.6857 -0.7139
vn 0.0693 -0.7071 -0.7037
vn 0.0000 0.6857 -0.7279
s 1
f 66//1 68//2 192//3
f 70//4 71//5 191//6
f 73//7 74//8 190//9
f 76//10 77//11 189//12
f 79//13 80//14 188//15
f 82//16 83//17 187//18
f 85//19 86//20 186//21
f 88//22 89//23 185//24
f 91//25 92//26 184//27
f 94//28 95//29 183//30
f 97//31 98//32 182//33
f 100//34 101//35 181//36
f 103//37 104//38 180//39
f 106//40 107//41 179//42
f 109//43 110//44 178//45
f 112//46 113//47 177//48
f 115//49 116//50 176//51
f 118//52 119//53 175//54
f 121//55 122//56 174//57
f 124//58 125//59 173//60
f 127//61 128//62 172//63
f 130//64 131//65 171//66
f 133//67 134//68 170//69
f 136//70 137//71 169//72
f 139//73 140//74 168//75
f 142//76 143//77 167//78
f 145//79 146//80 166//81
f 148//82 149//83 165//84
f 151//85 152//86 164//87
f 154//88 155//89 163//90
f 118//52 94//28 70//4
f 157//91 158//92 162//93
f 160//94 67//95 161//96
f 87//97 111//98 135//99
f 161//96 1//100 159//101
f 158//92 159//101 63//102
f 64//103 161//96 158//92
f 162//93 63//102 156//104
f 155//89 156//104 61//105
f 62//106 162//93 155//89
f 163//90 61//105 153//107
f 152//86 153//107 59//108
f 60//109 163//90 152//86
f 164//87 59//108 150//110
f 149//83 150//110 57//111
f 58//112 164//87 149//83
f 165//84 57//111 147//113
f 146//80 147//113 55//114
f 56//115 165//84 146//80
f 166//81 55//114 144//116
f 143//77 144//116 53//117
f 54//118 166//81 143//77
f 167//78 53//117 141//119
f 140//74 141//119 51//120
f 52//121 167//78 140//74
f 168//75 51//120 138//122
f 137//71 138//122 49//123
f 50//124 168//75 137//71
f 169//72 49//123 135//99
f 134//68 135//99 47//125
f 48//126 169//72 134//68
f 170//69 47//125 132//127
f 131//65 132//127 45//128
f 46//129 170//69 131//65
f 171//66 45//128 129//130
f 128//62 129//130 43//131
f 44//132 171//66 128//62
f 172//63 43//131 126//133
f 125//59 126//133 41//134
f 42//135 172//63 125//59
f 173//60 41//134 123//136
f 122//56 123//136 39//137
f 40//138 173//60 122//56
f 174//57 39//137 120//139
f 119//53 120//139 37//140
f 38//141 174//57 119//53
f 175//54 37//140 117//142
f 116//50 117//142 35//143
f 36//144 175//54 116//50
f 176//51 35//143 114//145
f 113//47 114//145 33//146
f 34//147 176//51 113//47
f 177//48 33//146 111//98
f 110//44 111//98 31//148
f 32//149 177//48 110//44
f 178//45 31//148 108//150
f 107//41 108//150 29//151
f 30//152 178//45 107//41
f 179//42 29//151 105//153
f 104//38 105//153 27//154
f 28//155 179//42 104//38
f 180//39 27//154 102//156
f 101//35 102//156 25//157
f 26//158 180//39 101//35
f 181//36 25//157 99//159
f 98//32 99//159 23//160
f 24//161 181//36 98//32
f 182//33 23//160 96//162
f 95//29 96//162 21//163
f 22//164 182//33 95//29
f 183//30 21//163 93//165
f 92//26 93//165 19//166
f 20//167 183//30 92//26
f 184//27 19//166 90//168
f 89//23 90//168 17//169
f 18//170 184//27 89//23
f 185//24 17//169 87//97
f 86//20 87//97 15//171
f 16//172 185//24 86//20
f 186//21 15//171 84//173
f 83//17 84//173 13//174
f 14//175 186//21 83//17
f 187//18 13//174 81//176
f 80//14 81//176 11//177
f 12//178 187//18 80//14
f 188//15 11//177 78//179
f 77//11 78//179 9//180
f 10//181 188//15 77//11
f 189//12 9//180 75//182
f 74//8 75//182 7//183
f 8//184 189//12 74//8
f 190//9 7//183 72//185
f 71//5 72//185 5//186
f 6//187 190//9 71//5
f 191//6 5//186 69//188
f 68//2 69//188 3//189
f 4//190 191//6 68//2
f 192//3 3//189 65//191
f 67//95 65//191 1//100
f 2//192 192//3 67//95
f 66//1 4//190 68//2
f 70//4 6//187 71//5
f 73//7 8//184 74//8
f 76//10 10//181 77//11
f 79//13 12//178 80//14
f 82//16 14//175 83//17
f 85//19 16//172 86//20
f 88//22 18//170 89//23
f 91//25 20//167 92//26
f 94//28 22//164 95//29
f 97//31 24//161 98//32
f 100//34 26//158 101//35
f 103//37 28//155 104//38
f 106//40 30//152 107//41
f 109//43 32//149 110//44
f 112//46 34//147 113//47
f 115//49 36//144 116//50
f 118//52 38//141 119//53
f 121//55 40//138 122//56
f 124//58 42//135 125//59
f 127//61 44//132 128//62
f 130//64 46//129 131//65
f 133//67 48//126 134//68
f 136//70 50//124 137//71
f 139//73 52//121 140//74
f 142//76 54//118 143//77
f 145//79 56//115 146//80
f 148//82 58//112 149//83
f 151//85 60//109 152//86
f 154//88 62//106 155//89
f 70//4 4//190 66//1
f 66//1 2//192 160//94
f 160//94 64//103 157//91
f 157//91 62//106 154//88
f 154//88 60//109 151//85
f 151//85 58//112 148//82
f 148//82 56//115 145//79
f 145//79 54//118 142//76
f 142//76 52//121 139//73
f 139//73 50//124 136//70
f 136//70 48//126 133//67
f 133//67 46//129 130//64
f 130//64 44//132 127//61
f 127//61 42//135 124//58
f 124//58 40//138 121//55
f 121//55 38//141 118//52
f 118//52 36//144 115//49
f 115//49 34//147 112//46
f 112//46 32//149 109//43
f 109//43 30//152 106//40
f 106//40 28//155 103//37
f 103//37 26//158 100//34
f 100//34 24//161 97//31
f 97//31 22//164 94//28
f 94//28 20//167 91//25
f 91//25 18//170 88//22
f 88//22 16//172 85//19
f 85//19 14//175 82//16
f 82//16 12//178 79//13
f 79//13 10//181 76//10
f 76//10 8//184 73//7
f 73//7 6//187 70//4
f 70//4 66//1 154//88
f 66//1 160//94 154//88
f 160//94 157//91 154//88
f 154//88 151//85 148//82
f 148//82 145//79 154//88
f 145//79 142//76 154//88
f 142//76 139//73 136//70
f 136//70 133//67 130//64
f 130//64 127//61 124//58
f 124//58 121//55 118//52
f 118//52 115//49 106//40
f 115//49 112//46 106//40
f 112//46 109//43 106//40
f 106//40 103//37 100//34
f 100//34 97//31 106//40
f 97//31 94//28 106//40
f 94//28 91//25 88//22
f 88//22 85//19 82//16
f 82//16 79//13 76//10
f 76//10 73//7 70//4
f 142//76 136//70 118//52
f 136//70 130//64 118//52
f 130//64 124//58 118//52
f 94//28 88//22 82//16
f 82//16 76//10 94//28
f 76//10 70//4 94//28
f 70//4 154//88 118//52
f 154//88 142//76 118//52
f 118//52 106//40 94//28
f 157//91 64//103 158//92
f 160//94 2//192 67//95
f 159//101 1//100 65//191
f 65//191 3//189 69//188
f 69//188 5//186 72//185
f 72//185 7//183 75//182
f 75//182 9//180 78//179
f 78//179 11//177 81//176
f 81//176 13//174 84//173
f 84//173 15//171 87//97
f 87//97 17//169 90//168
f 90//168 19//166 93//165
f 93//165 21//163 96//162
f 96//162 23//160 99//159
f 99//159 25//157 102//156
f 102//156 27//154 105//153
f 105//153 29//151 108//150
f 108//150 31//148 111//98
f 111//98 33//146 114//145
f 114//145 35//143 117//142
f 117//142 37//140 120//139
f 120//139 39//137 123//136
f 123//136 41//134 126//133
f 126//133 43//131 129//130
f 129//130 45//128 132//127
f 132//127 47//125 135//99
f 135//99 49//123 138//122
f 138//122 51//120 141//119
f 141//119 53//117 144//116
f 144//116 55//114 147//113
f 147//113 57//111 150//110
f 150//110 59//108 153//107
f 153//107 61//105 156//104
f 156//104 63//102 159//101
f 159//101 65//191 75//182
f 65//191 69//188 75//182
f 69//188 72//185 75//182
f 75//182 78//179 87//97
f 78//179 81//176 87//97
f 81//176 84//173 87//97
f 87//97 90//168 93//165
f 93//165 96//162 99//159
f 99//159 102//156 111//98
f 102//156 105//153 111//98
f 105//153 108//150 111//98
f 111//98 114//145 117//142
f 117//142 120//139 123//136
f 123//136 126//133 129//130
f 129//130 132//127 135//99
f 135//99 138//122 141//119
f 141//119 144//116 147//113
f 147//113 150//110 153//107
f 153//107 156//104 159//101
f 87//97 93//165 111//98
f 93//165 99//159 111//98
f 111//98 117//142 135//99
f 117//142 123//136 135//99
f 123//136 129//130 135//99
f 135//99 141//119 147//113
f 147//113 153//107 135//99
f 153//107 159//101 135//99
f 159//101 75//182 87//97
f 159//101 87//97 135//99
f 161//96 67//95 1//100
f 158//92 161//96 159//101
f 64//103 160//94 161//96
f 162//93 158//92 63//102
f 155//89 162//93 156//104
f 62//106 157//91 162//93
f 163//90 155//89 61//105
f 152//86 163//90 153//107
f 60//109 154//88 163//90
f 164//87 152//86 59//108
f 149//83 164//87 150//110
f 58//112 151//85 164//87
f 165//84 149//83 57//111
f 146//80 165//84 147//113
f 56//115 148//82 165//84
f 166//81 146//80 55//114
f 143//77 166//81 144//116
f 54//118 145//79 166//81
f 167//78 143//77 53//117
f 140//74 167//78 141//119
f 52//121 142//76 167//78
f 168//75 140//74 51//120
f 137//71 168//75 138//122
f 50//124 139//73 168//75
f 169//72 137//71 49//123
f 134//68 169//72 135//99
f 48//126 136//70 169//72
f 170//69 134//68 47//125
f 131//65 170//69 132//127
f 46//129 133//67 170//69
f 171//66 131//65 45//128
f 128//62 171//66 129//130
f 44//132 130//64 171//66
f 172//63 128//62 43//131
f 125//59 172//63 126//133
f 42//135 127//61 172//63
f 173//60 125//59 41//134
f 122//56 173//60 123//136
f 40//138 124//58 173//60
f 174//57 122//56 39//137
f 119//53 174//57 120//139
f 38//141 121//55 174//57
f 175//54 119//53 37//140
f 116//50 175//54 117//142
f 36//144 118//52 175//54
f 176//51 116//50 35//143
f 113//47 176//51 114//145
f 34//147 115//49 176//51
f 177//48 113//47 33//146
f 110//44 177//48 111//98
f 32//149 112//46 177//48
f 178//45 110//44 31//148
f 107//41 178//45 108//150
f 30//152 109//43 178//45
f 179//42 107//41 29//151
f 104//38 179//42 105//153
f 28//155 106//40 179//42
f 180//39 104//38 27//154
f 101//35 180//39 102//156
f 26//158 103//37 180//39
f 181//36 101//35 25//157
f 98//32 181//36 99//159
f 24//161 100//34 181//36
f 182//33 98//32 23//160
f 95//29 182//33 96//162
f 22//164 97//31 182//33
f 183//30 95//29 21//163
f 92//26 183//30 93//165
f 20//167 94//28 183//30
f 184//27 92//26 19//166
f 89//23 184//27 90//168
f 18//170 91//25 184//27
f 185//24 89//23 17//169
f 86//20 185//24 87//97
f 16//172 88//22 185//24
f 186//21 86//20 15//171
f 83//17 186//21 84//173
f 14//175 85//19 186//21
f 187//18 83//17 13//174
f 80//14 187//18 81//176
f 12//178 82//16 187//18
f 188//15 80//14 11//177
f 77//11 188//15 78//179
f 10//181 79//13 188//15
f 189//12 77//11 9//180
f 74//8 189//12 75//182
f 8//184 76//10 189//12
f 190//9 74//8 7//183
f 71//5 190//9 72//185
f 6//187 73//7 190//9
f 191//6 71//5 5//186
f 68//2 191//6 69//188
f 4//190 70//4 191//6
f 192//3 68//2 3//189
f 67//95 192//3 65//191
f 2//192 66//1 192//3
