# Blender v2.82 (sub 6) OBJ File: ''
# www.blender.org
o Cube_Cube.001
v -1.000000 1.000000 -0.500000
v -1.000000 0.500000 -1.000000
v -1.000000 0.500000 -0.500000
v 0.500000 1.000000 -1.000000
v 1.000000 0.500000 -1.000000
v 0.500000 0.500000 -1.000000
v 1.000000 1.000000 0.500000
v 1.000000 0.500000 1.000000
v 1.000000 0.500000 0.500000
v -0.500000 1.000000 1.000000
v -1.000000 0.500000 1.000000
v -0.500000 0.500000 1.000000
v 1.000000 -1.000000 0.500000
v 0.500000 -1.000000 1.000000
v 0.500000 -1.000000 0.500000
v -1.000000 1.000000 0.500000
v -0.500000 1.000000 0.500000
v 0.000000 1.000000 0.500000
v 0.500000 1.000000 1.000000
v 0.500000 1.000000 0.500000
v 0.000000 1.000000 -0.500000
v 0.500000 1.000000 0.000000
v 0.500000 1.000000 -0.500000
v -0.500000 1.000000 0.000000
v -0.500000 1.000000 -0.500000
v 0.000000 -1.000000 0.500000
v -0.500000 -1.000000 1.000000
v -0.500000 -1.000000 0.500000
v 0.000000 -1.000000 -0.500000
v -0.500000 -1.000000 -0.000000
v -0.500000 -1.000000 -0.500000
v 1.000000 -1.000000 -0.500000
v 0.500000 -1.000000 -0.000000
v 0.500000 -1.000000 -0.500000
v -0.500000 -0.000000 1.000000
v -1.000000 -0.500000 1.000000
v -0.500000 -0.500000 1.000000
v 0.500000 -0.000000 1.000000
v 0.000000 -0.500000 1.000000
v 0.500000 -0.500000 1.000000
v 0.000000 0.500000 1.000000
v 0.500000 0.500000 1.000000
v 1.000000 -0.000000 0.500000
v 1.000000 -0.500000 1.000000
v 1.000000 -0.500000 0.500000
v 1.000000 0.000000 -0.500000
v 1.000000 -0.500000 -0.000000
v 1.000000 -0.500000 -0.500000
v 1.000000 1.000000 -0.500000
v 1.000000 0.500000 0.000000
v 1.000000 0.500000 -0.500000
v 0.500000 0.000000 -1.000000
v 1.000000 -0.500000 -1.000000
v 0.500000 -0.500000 -1.000000
v -0.500000 0.000000 -1.000000
v 0.000000 -0.500000 -1.000000
v -0.500000 -0.500000 -1.000000
v -0.500000 1.000000 -1.000000
v 0.000000 0.500000 -1.000000
v -0.500000 0.500000 -1.000000
v -1.000000 0.000000 -0.500000
v -1.000000 -0.500000 -1.000000
v -1.000000 -0.500000 -0.500000
v -1.000000 -0.000000 0.500000
v -1.000000 -0.500000 -0.000000
v -1.000000 -0.500000 0.500000
v -1.000000 0.500000 0.000000
v -1.000000 0.500000 0.500000
v -1.000000 0.000000 0.000000
v -1.000000 -0.000000 1.000000
v -1.000000 1.000000 1.000000
v -1.000000 -1.000000 -0.000000
v -1.000000 -1.000000 0.500000
v -1.000000 -1.000000 1.000000
v -1.000000 -1.000000 -1.000000
v -1.000000 -1.000000 -0.500000
v 0.000000 0.000000 -1.000000
v -1.000000 0.000000 -1.000000
v -1.000000 1.000000 -1.000000
v 0.000000 -1.000000 -1.000000
v -0.500000 -1.000000 -1.000000
v 1.000000 -1.000000 -1.000000
v 0.500000 -1.000000 -1.000000
v 1.000000 0.000000 0.000000
v 1.000000 0.000000 -1.000000
v 1.000000 1.000000 -1.000000
v 1.000000 -1.000000 -0.000000
v 1.000000 -1.000000 1.000000
v 0.000000 -0.000000 1.000000
v 1.000000 -0.000000 1.000000
v 1.000000 1.000000 1.000000
v 0.000000 -1.000000 1.000000
v 0.000000 -1.000000 -0.000000
v 0.000000 1.000000 0.000000
v 0.000000 1.000000 -1.000000
v 1.000000 1.000000 0.000000
v 0.000000 1.000000 1.000000
v -1.000000 1.000000 0.000000
vn -1.0000 -0.0000 0.0000
vn 0.0000 0.0000 -1.0000
vn 1.0000 0.0000 0.0000
vn 0.0000 0.0000 1.0000
vn 0.0000 -1.0000 0.0000
vn 0.0000 1.0000 0.0000
s 1
f 1//1 2//1 3//1
f 4//2 5//2 6//2
f 7//3 8//3 9//3
f 10//4 11//4 12//4
f 13//5 14//5 15//5
f 16//6 10//6 17//6
f 18//6 19//6 20//6
f 21//6 22//6 23//6
f 1//6 24//6 25//6
f 26//5 27//5 28//5
f 29//5 30//5 31//5
f 32//5 33//5 34//5
f 35//4 36//4 37//4
f 38//4 39//4 40//4
f 19//4 41//4 42//4
f 43//3 44//3 45//3
f 46//3 47//3 48//3
f 49//3 50//3 51//3
f 52//2 53//2 54//2
f 55//2 56//2 57//2
f 58//2 59//2 60//2
f 61//1 62//1 63//1
f 64//1 65//1 66//1
f 16//1 67//1 68//1
f 68//1 69//1 64//1
f 11//1 64//1 70//1
f 71//1 68//1 11//1
f 66//1 72//1 73//1
f 36//1 73//1 74//1
f 70//1 66//1 36//1
f 63//1 75//1 76//1
f 65//1 76//1 72//1
f 69//1 63//1 65//1
f 60//2 77//2 55//2
f 2//2 55//2 78//2
f 79//2 60//2 2//2
f 57//2 80//2 81//2
f 62//2 81//2 75//2
f 78//2 57//2 62//2
f 54//2 82//2 83//2
f 56//2 83//2 80//2
f 77//2 54//2 56//2
f 51//3 84//3 46//3
f 5//3 46//3 85//3
f 86//3 51//3 5//3
f 48//3 87//3 32//3
f 53//3 32//3 82//3
f 85//3 48//3 53//3
f 45//3 88//3 13//3
f 47//3 13//3 87//3
f 84//3 45//3 47//3
f 42//4 89//4 38//4
f 8//4 38//4 90//4
f 91//4 42//4 8//4
f 40//4 92//4 14//4
f 44//4 14//4 88//4
f 90//4 40//4 44//4
f 37//4 74//4 27//4
f 39//4 27//4 92//4
f 89//4 37//4 39//4
f 34//5 93//5 29//5
f 83//5 29//5 80//5
f 82//5 34//5 83//5
f 31//5 72//5 76//5
f 81//5 76//5 75//5
f 80//5 31//5 81//5
f 28//5 74//5 73//5
f 30//5 73//5 72//5
f 93//5 28//5 30//5
f 25//6 94//6 21//6
f 58//6 21//6 95//6
f 79//6 25//6 58//6
f 23//6 96//6 49//6
f 4//6 49//6 86//6
f 95//6 23//6 4//6
f 20//6 91//6 7//6
f 22//6 7//6 96//6
f 94//6 20//6 22//6
f 17//6 97//6 18//6
f 24//6 18//6 94//6
f 98//6 17//6 24//6
f 15//5 92//5 26//5
f 33//5 26//5 93//5
f 87//5 15//5 33//5
f 12//4 70//4 35//4
f 41//4 35//4 89//4
f 97//4 12//4 41//4
f 9//3 90//3 43//3
f 50//3 43//3 84//3
f 96//3 9//3 50//3
f 6//2 85//2 52//2
f 59//2 52//2 77//2
f 95//2 6//2 59//2
f 3//1 78//1 61//1
f 67//1 61//1 69//1
f 98//1 3//1 67//1
f 1//1 79//1 2//1
f 4//2 86//2 5//2
f 7//3 91//3 8//3
f 10//4 71//4 11//4
f 13//5 88//5 14//5
f 16//6 71//6 10//6
f 18//6 97//6 19//6
f 21//6 94//6 22//6
f 1//6 98//6 24//6
f 26//5 92//5 27//5
f 29//5 93//5 30//5
f 32//5 87//5 33//5
f 35//4 70//4 36//4
f 38//4 89//4 39//4
f 19//4 97//4 41//4
f 43//3 90//3 44//3
f 46//3 84//3 47//3
f 49//3 96//3 50//3
f 52//2 85//2 53//2
f 55//2 77//2 56//2
f 58//2 95//2 59//2
f 61//1 78//1 62//1
f 64//1 69//1 65//1
f 16//1 98//1 67//1
f 68//1 67//1 69//1
f 11//1 68//1 64//1
f 71//1 16//1 68//1
f 66//1 65//1 72//1
f 36//1 66//1 73//1
f 70//1 64//1 66//1
f 63//1 62//1 75//1
f 65//1 63//1 76//1
f 69//1 61//1 63//1
f 60//2 59//2 77//2
f 2//2 60//2 55//2
f 79//2 58//2 60//2
f 57//2 56//2 80//2
f 62//2 57//2 81//2
f 78//2 55//2 57//2
f 54//2 53//2 82//2
f 56//2 54//2 83//2
f 77//2 52//2 54//2
f 51//3 50//3 84//3
f 5//3 51//3 46//3
f 86//3 49//3 51//3
f 48//3 47//3 87//3
f 53//3 48//3 32//3
f 85//3 46//3 48//3
f 45//3 44//3 88//3
f 47//3 45//3 13//3
f 84//3 43//3 45//3
f 42//4 41//4 89//4
f 8//4 42//4 38//4
f 91//4 19//4 42//4
f 40//4 39//4 92//4
f 44//4 40//4 14//4
f 90//4 38//4 40//4
f 37//4 36//4 74//4
f 39//4 37//4 27//4
f 89//4 35//4 37//4
f 34//5 33//5 93//5
f 83//5 34//5 29//5
f 82//5 32//5 34//5
f 31//5 30//5 72//5
f 81//5 31//5 76//5
f 80//5 29//5 31//5
f 28//5 27//5 74//5
f 30//5 28//5 73//5
f 93//5 26//5 28//5
f 25//6 24//6 94//6
f 58//6 25//6 21//6
f 79//6 1//6 25//6
f 23//6 22//6 96//6
f 4//6 23//6 49//6
f 95//6 21//6 23//6
f 20//6 19//6 91//6
f 22//6 20//6 7//6
f 94//6 18//6 20//6
f 17//6 10//6 97//6
f 24//6 17//6 18//6
f 98//6 16//6 17//6
f 15//5 14//5 92//5
f 33//5 15//5 26//5
f 87//5 13//5 15//5
f 12//4 11//4 70//4
f 41//4 12//4 35//4
f 97//4 10//4 12//4
f 9//3 8//3 90//3
f 50//3 9//3 43//3
f 96//3 7//3 9//3
f 6//2 5//2 85//2
f 59//2 6//2 52//2
f 95//2 4//2 6//2
f 3//1 2//1 78//1
f 67//1 3//1 61//1
f 98//1 1//1 3//1
